<?xml version="1.0" standalone="no"?>
<!DOCTYPE svg PUBLIC "-//W3C//DTD SVG 20010904//EN"
 "http://www.w3.org/TR/2001/REC-SVG-20010904/DTD/svg10.dtd">
<svg version="1.0" xmlns="http://www.w3.org/2000/svg"
 width="360.000000pt" height="360.000000pt" viewBox="0 0 360.000000 360.000000"
 preserveAspectRatio="xMidYMid meet">
<metadata>
Created by potrace 1.14, written by Peter Selinger 2001-2017
</metadata>
<g transform="translate(0.000000,360.000000) scale(0.100000,-0.100000)"
fill="#000000" stroke="none">
<path d="M0 1800 l0 -1800 1800 0 1800 0 0 1800 0 1800 -1800 0 -1800 0 0
-1800z m893 1058 c41 -161 262 -1237 282 -1368 14 -96 27 -175 28 -177 2 -1
18 91 36 205 25 156 229 1187 266 1340 l5 22 284 0 284 0 5 -22 c41 -161 262
-1237 282 -1368 14 -96 27 -175 28 -177 2 -1 18 91 36 205 25 156 229 1187
266 1340 l5 22 285 0 c203 0 285 -3 285 -11 0 -11 -524 -2023 -557 -2137 l-15
-52 -315 2 -316 3 -44 205 c-108 512 -223 1099 -234 1189 0 3 -23 -111 -50
-254 -27 -143 -91 -458 -142 -700 l-93 -440 -315 -3 -315 -2 -287 1092 c-158
601 -287 1096 -287 1101 0 4 132 7 294 7 l294 0 5 -22z"/>
</g>
</svg>
